<svg xmlns="http://www.w3.org/2000/svg" width="512" height="512" viewBox="0 0 512 512">
  <rect width="512" height="512" rx="0" ry="0" fill="#171717"/>
  <defs>
    <linearGradient id="boltGradient" x1="0" y1="0" x2="0" y2="1">
      <stop offset="0%" stop-color="#facc15"/>
      <stop offset="100%" stop-color="#ef4444"/>
    </linearGradient>
  </defs>
  <g transform="translate(160, 56) scale(12)">
    <path
      d="M2 14a1 1 0 0 1-.78-1.63l9.9-10.2a.5.5 0 0 1 .86.46l-1.92 6.02A1 1 0 0 0 11 10h3a1 1 0 0 1 .78 1.63l-9.9 10.2a.5.5 0 0 1-.86-.46l1.92-6.02A1 1 0 0 0 5 14z"
      fill="url(#boltGradient)"
    />
  </g>
</svg>
